<?xml version="1.0" encoding="UTF-8" standalone="no"?>
<!-- Created with Inkscape (http://www.inkscape.org/) -->

<svg
   xmlns:dc="http://purl.org/dc/elements/1.1/"
   xmlns:cc="http://creativecommons.org/ns#"
   xmlns:rdf="http://www.w3.org/1999/02/22-rdf-syntax-ns#"
   xmlns:svg="http://www.w3.org/2000/svg"
   xmlns="http://www.w3.org/2000/svg"
   xmlns:xlink="http://www.w3.org/1999/xlink"
   version="1.1"
   width="800"
   height="700"
   id="svg2">
  <defs
     id="defs4">
    <linearGradient
       id="linearGradient3770">
      <stop
         id="stop3772"
         style="stop-color:#b3dee5;stop-opacity:1"
         offset="0" />
      <stop
         id="stop3774"
         style="stop-color:#05a4cb;stop-opacity:1"
         offset="1" />
    </linearGradient>
    <linearGradient
       x1="403.61499"
       y1="-87.020844"
       x2="403.61499"
       y2="204.40971"
       id="linearGradient3776"
       xlink:href="#linearGradient3770"
       gradientUnits="userSpaceOnUse"
       gradientTransform="matrix(1.3874084,0,0,1.3874084,-188.1731,493.0507)" />
  </defs>
  <metadata
     id="metadata7">
    <rdf:RDF>
      <cc:Work
         rdf:about="">
        <dc:format>image/svg+xml</dc:format>
        <dc:type
           rdf:resource="http://purl.org/dc/dcmitype/StillImage" />
        <dc:title></dc:title>
      </cc:Work>
    </rdf:RDF>
  </metadata>
  <g
     transform="translate(0,-352.36217)"
     id="layer1">
    <g
       transform="matrix(1.3874084,0,0,1.3874084,-188.1731,493.0507)"
       id="text2996"
       style="font-size:161.89212036px;font-style:normal;font-variant:normal;font-weight:normal;font-stretch:normal;text-align:start;line-height:125%;letter-spacing:0px;word-spacing:0px;writing-mode:lr-tb;text-anchor:start;fill:#000000;fill-opacity:1;stroke:none;font-family:Interstate;-inkscape-font-specification:Interstate">
      <path
         d="m 184.57306,256.13326 c -3e-5,2.91503 -1.05237,5.42483 -3.15702,7.5294 -2.1047,2.10478 -4.6145,3.15711 -7.5294,3.15702 -3.02035,9e-5 -5.58285,-1.05224 -7.68751,-3.15702 -2.10468,-2.10457 -3.15702,-4.61437 -3.15701,-7.5294 -1e-5,-3.02351 1.05233,-5.58766 3.15701,-7.69245 2.10466,-2.10456 4.66716,-3.1569 7.68751,-3.15701 2.9149,1.1e-4 5.4247,1.05245 7.5294,3.15701 2.10465,2.10479 3.15699,4.66894 3.15702,7.69245 z m -2.43075,102.80307 c -3e-5,5.39509 -0.40434,10.00792 -1.21291,13.8385 -0.80863,3.83056 -2.26527,7.12262 -4.36992,9.87617 -2.1047,2.75351 -5.04597,5.04758 -8.82383,6.88219 -3.77789,1.83457 -8.58011,3.34473 -14.40666,4.53049 l -5.66682,-12.62806 c 3.88328,-1.07706 6.98512,-2.15574 9.30554,-3.23606 2.3204,-1.08035 4.12864,-2.42994 5.42473,-4.04879 1.29606,-1.61886 2.13266,-3.58849 2.5098,-5.9089 0.37711,-2.32042 0.56568,-5.31521 0.56569,-8.9844 l 0,-81.43023 16.67438,0 z"
         id="path3779" />
      <path
         d="m 271.52517,319.91583 c -8e-5,7.01562 -0.97172,13.3033 -2.91492,18.86304 -1.94337,5.55979 -4.64173,10.25496 -8.0951,14.08552 -3.45352,3.83058 -7.50066,6.74386 -12.14142,8.73984 -4.64088,1.99599 -9.71318,2.99398 -15.21691,2.99398 -5.39842,0 -10.36367,-1.05234 -14.89577,-3.15701 -4.53217,-2.10468 -8.47143,-5.09947 -11.81781,-8.9844 -3.34642,-3.88491 -5.96409,-8.52574 -7.85302,-13.92249 -1.88894,-5.3967 -2.83341,-11.43982 -2.8334,-18.12937 -1e-5,-6.90684 0.97163,-13.113 2.91492,-18.61848 1.94328,-5.50536 4.61447,-10.17336 8.01358,-14.00401 3.39908,-3.83049 7.39187,-6.7446 11.97838,-8.74231 4.58645,-1.99754 9.57887,-2.99636 14.9773,-2.99644 5.39503,8e-5 10.41298,1.05242 15.05387,3.15701 4.64076,2.10476 8.66155,5.04603 12.06236,8.82383 3.40068,3.77795 6.04552,8.39243 7.93454,13.84344 1.88885,5.45113 2.83332,11.46708 2.8334,18.04785 z m -16.83741,0.48911 c -7e-5,-8.74144 -1.91618,-15.6755 -5.74833,-20.80221 -3.83229,-5.12658 -9.1475,-7.6899 -15.94565,-7.68997 -6.37006,7e-5 -11.36249,2.56339 -14.97729,7.68997 -3.61487,5.12671 -5.42229,11.89774 -5.42226,20.3131 -3e-5,9.39038 1.94243,16.541 5.82738,21.45189 3.88489,4.91093 9.01236,7.36638 15.38242,7.36637 3.12897,1e-5 5.98873,-0.75507 8.57928,-2.26525 2.59044,-1.51014 4.80298,-3.5333 6.63763,-6.06947 1.83453,-2.53613 3.23765,-5.53175 4.20936,-8.98687 0.97157,-3.45506 1.45739,-7.12424 1.45746,-11.00756 z"
         id="path3781" />
      <path
         d="m 284.37105,362.81961 0,-109.2752 16.67438,-8.74479 0,118.01999 z"
         id="path3783" />
      <path
         d="m 337.90735,256.13326 c -3e-5,2.91503 -1.05237,5.42483 -3.15702,7.5294 -2.1047,2.10478 -4.6145,3.15711 -7.5294,3.15702 -3.02035,9e-5 -5.58285,-1.05224 -7.68751,-3.15702 -2.10468,-2.10457 -3.15702,-4.61437 -3.15701,-7.5294 -1e-5,-3.02351 1.05233,-5.58766 3.15701,-7.69245 2.10466,-2.10456 4.66716,-3.1569 7.68751,-3.15701 2.9149,1.1e-4 5.4247,1.05245 7.5294,3.15701 2.10465,2.10479 3.15699,4.66894 3.15702,7.69245 z m -19.10513,106.68635 0,-84.99237 16.67438,0 0,84.99237 z"
         id="path3785" />
      <path
         d="m 406.56458,302.2731 c -3.45515,-3.56372 -6.82873,-6.18139 -10.12072,-7.85301 -3.29211,-1.67148 -6.82543,-2.50726 -10.59997,-2.50733 -6.15267,7e-5 -11.01006,2.50905 -14.57216,7.52694 -3.56217,5.01801 -5.34324,11.89773 -5.34322,20.63917 -2e-5,4.20939 0.43145,8.06796 1.29443,11.57572 0.86292,3.50782 2.15817,6.52979 3.88575,9.06592 1.72751,2.53617 3.85936,4.5058 6.39555,5.9089 2.53611,1.40313 5.47738,2.10469 8.82383,2.10468 3.99192,1e-5 7.36384,-0.89011 10.11579,-2.67037 2.75183,-1.78023 5.80097,-4.3979 9.14743,-7.85302 l 10.68643,10.52339 c -1.62058,2.16068 -3.40165,4.18466 -5.34322,6.07194 -1.9417,1.8873 -4.12707,3.55967 -6.55611,5.01713 -2.42917,1.45747 -5.15471,2.61768 -8.17662,3.48063 -3.02203,0.86294 -6.47465,1.29442 -10.35788,1.29442 -5.18103,0 -10.01124,-1.05234 -14.49065,-3.15701 -4.47946,-2.10468 -8.3652,-5.0723 -11.65724,-8.90289 -3.29207,-3.83056 -5.88256,-8.44421 -7.77149,-13.84096 -1.88895,-5.39671 -2.83342,-11.43982 -2.83341,-18.12937 -10e-6,-7.01554 0.97164,-13.27604 2.91493,-18.78152 1.94327,-5.50536 4.58729,-10.17336 7.93206,-14.00401 3.34474,-3.83049 7.284,-6.7446 11.81781,-8.74231 4.53375,-1.99754 9.39113,-2.99636 14.57217,-2.99644 6.25798,8e-5 11.84245,1.21463 16.75342,3.64365 4.91085,2.42919 9.36393,6.0185 13.35926,10.76795 z"
         id="path3787" />
      <path
         d="m 429.80045,362.81961 0,-109.2752 16.67438,-8.74479 0,118.01999 z"
         id="path3789" />
      <path
         d="m 535.85769,319.91583 c -8e-5,7.01562 -0.97173,13.3033 -2.91493,18.86304 -1.94336,5.55979 -4.64173,10.25496 -8.0951,14.08552 -3.45352,3.83058 -7.50065,6.74386 -12.14141,8.73984 -4.64089,1.99599 -9.71319,2.99398 -15.21691,2.99398 -5.39842,0 -10.36368,-1.05234 -14.89578,-3.15701 -4.53216,-2.10468 -8.47143,-5.09947 -11.81781,-8.9844 -3.34642,-3.88491 -5.96408,-8.52574 -7.85301,-13.92249 -1.88895,-5.3967 -2.83342,-11.43982 -2.83341,-18.12937 -1e-5,-6.90684 0.97164,-13.113 2.91493,-18.61848 1.94327,-5.50536 4.61446,-10.17336 8.01358,-14.00401 3.39908,-3.83049 7.39187,-6.7446 11.97838,-8.74231 4.58644,-1.99754 9.57887,-2.99636 14.97729,-2.99644 5.39504,8e-5 10.41299,1.05242 15.05387,3.15701 4.64077,2.10476 8.66155,5.04603 12.06237,8.82383 3.40067,3.77795 6.04551,8.39243 7.93453,13.84344 1.88886,5.45113 2.83333,11.46708 2.83341,18.04785 z m -16.83741,0.48911 c -7e-5,-8.74144 -1.91618,-15.6755 -5.74834,-20.80221 -3.83228,-5.12658 -9.14749,-7.6899 -15.94564,-7.68997 -6.37006,7e-5 -11.36249,2.56339 -14.9773,7.68997 -3.61486,5.12671 -5.42228,11.89774 -5.42226,20.3131 -2e-5,9.39038 1.94244,16.541 5.82739,21.45189 3.88489,4.91093 9.01236,7.36638 15.38242,7.36637 3.12897,1e-5 5.98872,-0.75507 8.57927,-2.26525 2.59044,-1.51014 4.80299,-3.5333 6.63764,-6.06947 1.83453,-2.53613 3.23765,-5.53175 4.20935,-8.98687 0.97158,-3.45506 1.4574,-7.12424 1.45747,-11.00756 z"
         id="path3791" />
      <path
         d="m 598.88975,362.81961 0,-8.09263 c -2.15744,3.12902 -5.15223,5.55648 -8.9844,7.28238 -3.83227,1.7259 -7.9601,2.58885 -12.3835,2.58885 -9.93055,0 -17.45913,-3.18336 -22.58575,-9.55009 -5.12666,-6.36672 -7.68999,-15.8641 -7.68998,-28.49219 l 0,-48.72869 16.67438,0 0,48.08148 c -3e-5,8.63283 1.53813,14.67594 4.61448,18.12937 3.07628,3.45346 7.36633,5.18019 12.87014,5.18017 5.61242,2e-5 9.92964,-1.8881 12.95167,-5.66435 3.02191,-3.7762 4.5329,-9.11776 4.53296,-16.02469 l 0,-49.70198 16.67438,0 0,84.99237 z"
         id="path3793" />
      <path
         d="m 682.81045,362.81961 0,-8.09263 c -3.12908,2.80624 -6.47466,5.153 -10.03674,7.04029 -3.56219,1.88729 -7.60932,2.83094 -12.14141,2.83094 -4.53218,0 -8.79505,-0.86295 -12.78863,-2.58885 -3.99364,-1.7259 -7.47426,-4.42344 -10.44187,-8.09263 -2.96764,-3.66917 -5.28805,-8.39152 -6.96124,-14.16704 -1.67321,-5.77548 -2.50981,-12.70955 -2.5098,-20.80221 -10e-6,-7.23292 0.91729,-13.54695 2.75189,-18.94209 1.83458,-5.39502 4.29003,-9.87363 7.36637,-13.43584 3.07629,-3.56206 6.63761,-6.2069 10.68395,-7.93453 4.04628,-1.72747 8.2828,-2.59124 12.70958,-2.59132 4.3147,8e-5 8.36101,0.97172 12.13894,2.91492 3.77782,1.94337 6.85414,4.20944 9.22896,6.79821 l 0,-32.37546 16.51134,-8.58175 0,118.01999 z m 0.16304,-60.22537 c -0.97171,-1.29436 -2.15909,-2.58879 -3.56214,-3.88328 -1.40318,-1.29436 -2.96851,-2.48174 -4.696,-3.56214 -1.7276,-1.08026 -3.58937,-1.97121 -5.5853,-2.67284 -1.99603,-0.70149 -4.02001,-1.05226 -6.07194,-1.05234 -6.04399,8e-5 -10.63046,2.23979 -13.75945,6.71916 -3.12904,4.4795 -4.69355,11.25299 -4.69353,20.3205 -2e-5,10.79021 1.64601,18.61357 4.93809,23.47011 3.29202,4.85658 8.01272,7.28487 14.1621,7.28485 3.99522,2e-5 7.66522,-1.10584 11.01003,-3.31758 3.3447,-2.2117 6.09741,-4.72068 8.25814,-7.52694 z"
         id="path3795" />
    </g>
    <path
       d="m 584.75093,575.4381 c 0,-85.42981 -61.20021,-203.21665 -205.3189,-203.21665 -118.89348,0 -185.22311,91.05069 -197.61068,158.01845 -10.00718,-5.10494 -23.8993,-6.30671 -42.39519,-6.30671 -52.623128,0 -124.382611,41.94592 -124.382611,129.63821 0,68.60661 55.50813,127.13613 127.535971,127.13613 l 639.87584,0 C 697.4871,778.6514 584.75093,706.57144 584.75093,575.4381 z"
       id="path3000"
       style="fill:url(#linearGradient3776);fill-opacity:1;stroke:none" />
  </g>
</svg>
